<svg width="7" height="6" viewBox="0 0 7 6" fill="none" xmlns="http://www.w3.org/2000/svg">
<path fill-rule="evenodd" clip-rule="evenodd" d="M0 2.79728C0 2.73191 0.0263375 2.66921 0.0732186 2.62299C0.1201 2.57676 0.183684 2.5508 0.249984 2.5508H6.14611L4.57271 0.999919C4.52577 0.953636 4.4994 0.890863 4.4994 0.825409C4.4994 0.759954 4.52577 0.697181 4.57271 0.650898C4.61965 0.604615 4.68331 0.578613 4.7497 0.578613C4.81608 0.578613 4.87975 0.604615 4.92669 0.650898L6.92656 2.62277C6.94984 2.64567 6.96831 2.67287 6.98091 2.70281C6.99351 2.73276 7 2.76486 7 2.79728C7 2.8297 6.99351 2.8618 6.98091 2.89175C6.96831 2.92169 6.94984 2.94889 6.92656 2.97179L4.92669 4.94366C4.87975 4.98994 4.81608 5.01595 4.7497 5.01595C4.68331 5.01595 4.61965 4.98994 4.57271 4.94366C4.52577 4.89738 4.4994 4.83461 4.4994 4.76915C4.4994 4.7037 4.52577 4.64092 4.57271 4.59464L6.14611 3.04376H0.249984C0.183684 3.04376 0.1201 3.0178 0.0732186 2.97157C0.0263375 2.92535 0 2.86265 0 2.79728Z" fill="#898989"/>
</svg>
