<svg width="7" height="6" viewBox="0 0 7 6" fill="none" xmlns="http://www.w3.org/2000/svg">
<path fill-rule="evenodd" clip-rule="evenodd" d="M7 2.79728C7 2.73191 6.97366 2.66921 6.92678 2.62299C6.8799 2.57676 6.81632 2.5508 6.75002 2.5508H0.853892L2.42729 0.999919C2.45053 0.977002 2.46897 0.949796 2.48155 0.919853C2.49413 0.889911 2.5006 0.857818 2.5006 0.825409C2.5006 0.792999 2.49413 0.760907 2.48155 0.730964C2.46897 0.701022 2.45053 0.673815 2.42729 0.650898C2.40405 0.627981 2.37646 0.609802 2.34609 0.597399C2.31572 0.584997 2.28317 0.578613 2.2503 0.578613C2.21743 0.578613 2.18489 0.584997 2.15452 0.597399C2.12415 0.609802 2.09656 0.627981 2.07331 0.650898L0.0734422 2.62277C0.0501621 2.64567 0.0316918 2.67287 0.0190894 2.70281C0.00648698 2.73276 0 2.76486 0 2.79728C0 2.8297 0.00648698 2.8618 0.0190894 2.89175C0.0316918 2.92169 0.0501621 2.94889 0.0734422 2.97179L2.07331 4.94366C2.09656 4.96658 2.12415 4.98476 2.15452 4.99716C2.18489 5.00956 2.21743 5.01595 2.2503 5.01595C2.28317 5.01595 2.31572 5.00956 2.34609 4.99716C2.37646 4.98476 2.40405 4.96658 2.42729 4.94366C2.45053 4.92074 2.46897 4.89354 2.48155 4.8636C2.49413 4.83365 2.5006 4.80156 2.5006 4.76915C2.5006 4.73674 2.49413 4.70465 2.48155 4.67471C2.46897 4.64476 2.45053 4.61756 2.42729 4.59464L0.853892 3.04376H6.75002C6.81632 3.04376 6.8799 3.0178 6.92678 2.97157C6.97366 2.92535 7 2.86265 7 2.79728Z" fill="#898989"/>
</svg>
