<svg width="13" height="12" viewBox="0 0 13 12" fill="none" xmlns="http://www.w3.org/2000/svg">
<path d="M5.63333 11.0508C5.87708 11.1398 6.13889 10.9547 6.13889 10.6875V1.84219C6.13889 1.74375 6.10278 1.64531 6.02604 1.58437C5.58368 1.21875 4.56806 0.75 3.25 0.75C1.97483 0.75 0.792187 1.13906 0.203125 1.40391C0.0767361 1.46016 0 1.59141 0 1.73203V10.643C0 10.9219 0.288889 11.1164 0.543924 11.0297C1.25486 10.7836 2.38108 10.5 3.25 10.5C4.0151 10.5 5.03299 10.8281 5.63333 11.0508ZM7.36667 11.0508C7.96701 10.8281 8.9849 10.5 9.75 10.5C10.6189 10.5 11.7451 10.7836 12.4561 11.0297C12.7111 11.1188 13 10.9219 13 10.643V1.73203C13 1.58906 12.9233 1.46016 12.7969 1.40391C12.2078 1.13906 11.0252 0.75 9.75 0.75C8.43194 0.75 7.41632 1.21875 6.97396 1.58437C6.89948 1.64531 6.86111 1.74375 6.86111 1.84219V10.6875C6.86111 10.9547 7.12517 11.1398 7.36667 11.0508Z" fill="#A59071"/>
</svg>
