<svg width="7" height="7" viewBox="0 0 7 7" fill="none" xmlns="http://www.w3.org/2000/svg">
<path d="M7 3.5C7 4.42826 6.63125 5.3185 5.97487 5.97487C5.3185 6.63125 4.42826 7 3.5 7C2.57174 7 1.6815 6.63125 1.02513 5.97487C0.368749 5.3185 0 4.42826 0 3.5C0 2.57174 0.368749 1.6815 1.02513 1.02513C1.6815 0.368749 2.57174 0 3.5 0C4.42826 0 5.3185 0.368749 5.97487 1.02513C6.63125 1.6815 7 2.57174 7 3.5ZM5.26312 2.17437C5.23187 2.14323 5.19466 2.11871 5.15372 2.10228C5.11278 2.08585 5.06894 2.07784 5.02483 2.07874C4.98072 2.07964 4.93724 2.08943 4.897 2.10751C4.85676 2.1256 4.82058 2.15161 4.79063 2.184L3.27119 4.11994L2.3555 3.20381C2.2933 3.14585 2.21103 3.1143 2.12602 3.1158C2.04101 3.1173 1.95991 3.15173 1.89979 3.21185C1.83967 3.27197 1.80524 3.35308 1.80374 3.43808C1.80224 3.52309 1.83379 3.60536 1.89175 3.66756L3.04937 4.82562C3.08056 4.85675 3.1177 4.88128 3.15857 4.89775C3.19944 4.91421 3.24321 4.92228 3.28726 4.92146C3.33132 4.92065 3.37476 4.91096 3.41499 4.893C3.45522 4.87503 3.49143 4.84914 3.52144 4.81687L5.26794 2.63375C5.32748 2.57184 5.36037 2.48906 5.35955 2.40317C5.35873 2.31728 5.32427 2.23514 5.26356 2.17437H5.26312Z" fill="white"/>
</svg>
