<svg width="6" height="6" viewBox="0 0 6 6" fill="none" xmlns="http://www.w3.org/2000/svg">
<g clip-path="url(#clip0_152_31)">
<path d="M3 1.3125C3 1.26277 2.98025 1.21508 2.94508 1.17992C2.90992 1.14475 2.86223 1.125 2.8125 1.125C2.76277 1.125 2.71508 1.14475 2.67992 1.17992C2.64475 1.21508 2.625 1.26277 2.625 1.3125V3.375C2.62501 3.40805 2.63376 3.44051 2.65035 3.46909C2.66695 3.49767 2.6908 3.52136 2.7195 3.53775L4.032 4.28775C4.07507 4.31103 4.12554 4.31654 4.17262 4.3031C4.2197 4.28966 4.25965 4.25833 4.28394 4.21582C4.30823 4.17332 4.31493 4.12299 4.30261 4.07561C4.29029 4.02822 4.25992 3.98754 4.218 3.96225L3 3.26625V1.3125Z" fill="#898989"/>
<path d="M3 6C3.79565 6 4.55871 5.68393 5.12132 5.12132C5.68393 4.55871 6 3.79565 6 3C6 2.20435 5.68393 1.44129 5.12132 0.87868C4.55871 0.316071 3.79565 0 3 0C2.20435 0 1.44129 0.316071 0.87868 0.87868C0.316071 1.44129 0 2.20435 0 3C0 3.79565 0.316071 4.55871 0.87868 5.12132C1.44129 5.68393 2.20435 6 3 6ZM5.625 3C5.625 3.69619 5.34844 4.36387 4.85616 4.85616C4.36387 5.34844 3.69619 5.625 3 5.625C2.30381 5.625 1.63613 5.34844 1.14384 4.85616C0.651562 4.36387 0.375 3.69619 0.375 3C0.375 2.30381 0.651562 1.63613 1.14384 1.14384C1.63613 0.651562 2.30381 0.375 3 0.375C3.69619 0.375 4.36387 0.651562 4.85616 1.14384C5.34844 1.63613 5.625 2.30381 5.625 3Z" fill="#898989"/>
</g>
<defs>
<clipPath id="clip0_152_31">
<rect width="6" height="6" fill="white"/>
</clipPath>
</defs>
</svg>
