<svg width="14" height="13" viewBox="0 0 14 13" fill="none" xmlns="http://www.w3.org/2000/svg">
<g clip-path="url(#clip0_148_133)">
<path d="M4.39688 2.45019C4.77969 2.88183 5.24453 3.23476 5.75039 3.52167C6.4586 3.92284 7.21875 4.17929 7.875 4.32401V3.52421C7.26797 2.75487 6.83594 1.81542 6.79766 0.710928C6.78672 0.424014 6.59258 0.16503 6.29453 0.0913971C6.08672 0.0406158 5.8625 0.086319 5.72031 0.238663C5.35664 0.629678 4.82617 1.37108 4.39688 2.45273V2.45019ZM8.75 3.65624V4.43319V4.4662V5.28124C7.0875 5.15175 3.69141 4.16913 2.75352 1.28983C2.66328 1.01562 2.40352 0.812491 2.09453 0.812491C1.87852 0.812491 1.67617 0.911514 1.58047 1.09179C1.27969 1.67323 0.875002 2.84628 0.875002 4.46874C0.875002 7.4369 3.06524 9.05175 4.1125 9.61796L0.322659 10.5777C0.183205 10.6133 0.071096 10.7098 0.0246116 10.8367C-0.0218727 10.9637 0.00273665 11.1059 0.0875023 11.2125C0.593362 11.8371 2.11367 13 4.375 13C4.47344 13 4.57188 12.9695 4.64844 12.9111L6.71563 11.375H8.75C11.1672 11.375 13.125 9.55702 13.125 7.31249V3.24999L13.9426 2.10995C13.9781 2.05917 14 1.99823 14 1.9373C14 1.76464 13.8496 1.62499 13.6637 1.62499H10.9375C9.72891 1.62499 8.75 2.53398 8.75 3.65624ZM10.9375 4.06249C10.6969 4.06249 10.5 3.87968 10.5 3.65624C10.5 3.4328 10.6969 3.24999 10.9375 3.24999C11.1781 3.24999 11.375 3.4328 11.375 3.65624C11.375 3.87968 11.1781 4.06249 10.9375 4.06249Z" fill="#A59071"/>
</g>
<defs>
<clipPath id="clip0_148_133">
<rect width="14" height="13" fill="white"/>
</clipPath>
</defs>
</svg>
