<svg width="30" height="30" viewBox="0 0 30 30" fill="none" xmlns="http://www.w3.org/2000/svg">
<path d="M21.25 7.03125C21.25 10.2305 17.4427 15.9316 15.7708 18.2812C15.3698 18.8438 14.625 18.8438 14.2292 18.2812C12.5573 15.9316 8.75 10.2305 8.75 7.03125C8.75 3.14648 11.5469 0 15 0C18.4531 0 21.25 3.14648 21.25 7.03125ZM21.6667 11.7422C21.849 11.3379 22.0156 10.9336 22.1667 10.5352C22.1927 10.4648 22.2188 10.3887 22.2448 10.3184L28.2865 7.59961C29.1094 7.23047 30 7.91016 30 8.90625V24.7734C30 25.3477 29.6875 25.8633 29.2135 26.0801L21.6667 29.4727V11.7422ZM7.16667 8.10352C7.29167 8.92969 7.54167 9.76172 7.83333 10.5352C7.98437 10.9336 8.15104 11.3379 8.33333 11.7422V26.4727L1.71354 29.4551C0.890625 29.8242 0 29.1445 0 28.1484V12.2812C0 11.707 0.3125 11.1914 0.786458 10.9746L7.17187 8.10352H7.16667ZM17.0729 19.4531C17.7969 18.4336 18.9323 16.7754 20 14.9414V29.5488L10 26.332V14.9414C11.0677 16.7754 12.2031 18.4336 12.9271 19.4531C13.9948 20.9531 16.0052 20.9531 17.0729 19.4531ZM15 8.90625C16.151 8.90625 17.0833 7.85742 17.0833 6.5625C17.0833 5.26758 16.151 4.21875 15 4.21875C13.849 4.21875 12.9167 5.26758 12.9167 6.5625C12.9167 7.85742 13.849 8.90625 15 8.90625Z" fill="#898989"/>
</svg>
