<svg width="14" height="14" viewBox="0 0 14 14" fill="none" xmlns="http://www.w3.org/2000/svg">
<circle cx="7" cy="7" r="7" fill="#F2F2F2"/>
<path fill-rule="evenodd" clip-rule="evenodd" d="M3 4.16667C3 3.85725 3.10536 3.5605 3.29289 3.34171C3.48043 3.12292 3.73478 3 4 3H10C10.2652 3 10.5196 3.12292 10.7071 3.34171C10.8946 3.5605 11 3.85725 11 4.16667V8.83333C11 9.14275 10.8946 9.4395 10.7071 9.65829C10.5196 9.87708 10.2652 10 10 10H4C3.73478 10 3.48043 9.87708 3.29289 9.65829C3.10536 9.4395 3 9.14275 3 8.83333V4.16667ZM4 3.58333C3.86739 3.58333 3.74021 3.64479 3.64645 3.75419C3.55268 3.86358 3.5 4.01196 3.5 4.16667V4.29325L5.1175 5.42492C5.04607 5.61404 5.00652 5.81743 5.001 6.024L3.5 4.974V8.31125L5.2265 7.07225C5.2995 7.23383 5.391 7.39658 5.5015 7.55933L3.5165 8.98442C3.54503 9.10854 3.60789 9.21819 3.69532 9.29636C3.78275 9.37452 3.88985 9.41681 4 9.41667H10C10.1101 9.41668 10.2171 9.37433 10.3044 9.29618C10.3917 9.21803 10.4545 9.10844 10.483 8.98442L8.499 7.55992C8.609 7.39658 8.7005 7.23325 8.774 7.07225L10.5 8.31125V4.97342L8.999 6.024C8.99342 5.81763 8.95387 5.61444 8.8825 5.4255L10.5 4.29325V4.16667C10.5 4.01196 10.4473 3.86358 10.3536 3.75419C10.2598 3.64479 10.1326 3.58333 10 3.58333H4ZM7 5.32925C7.832 4.33117 9.9125 6.07767 7 8.32292C4.0875 6.07708 6.168 4.33117 7 5.32925Z" fill="#A59071"/>
</svg>
