<svg width="30" height="30" viewBox="0 0 30 30" fill="none" xmlns="http://www.w3.org/2000/svg">
<path d="M15 30C23.2852 30 30 23.2852 30 15C30 6.71484 23.2852 0 15 0C6.71484 0 0 6.71484 0 15C0 23.2852 6.71484 30 15 30ZM13.125 11.25V18.75C13.125 19.7871 12.2871 20.625 11.25 20.625C10.2129 20.625 9.375 19.7871 9.375 18.75V11.25C9.375 10.2129 10.2129 9.375 11.25 9.375C12.2871 9.375 13.125 10.2129 13.125 11.25ZM20.625 11.25V18.75C20.625 19.7871 19.7871 20.625 18.75 20.625C17.7129 20.625 16.875 19.7871 16.875 18.75V11.25C16.875 10.2129 17.7129 9.375 18.75 9.375C19.7871 9.375 20.625 10.2129 20.625 11.25Z" fill="#A59071"/>
</svg>
