<svg width="30" height="30" viewBox="0 0 30 30" fill="none" xmlns="http://www.w3.org/2000/svg">
<path d="M30 15C30 23.2852 23.2852 30 15 30C6.71484 30 0 23.2852 0 15C0 6.71484 6.71484 0 15 0C23.2852 0 30 6.71484 30 15ZM11.0332 8.61914C10.5879 8.86523 10.3125 9.33984 10.3125 9.84375V20.1562C10.3125 20.666 10.5879 21.1348 11.0332 21.3809C11.4785 21.627 12.0176 21.6211 12.457 21.3516L20.8945 16.1953C21.3105 15.9375 21.5684 15.4863 21.5684 14.9941C21.5684 14.502 21.3105 14.0508 20.8945 13.793L12.457 8.63672C12.0234 8.37305 11.4785 8.36133 11.0332 8.60742V8.61914Z" fill="#A59071"/>
</svg>
